<?xml version="1.0" encoding="UTF-8"?>
<svg width="480px" height="350px" viewBox="0 0 480 350" version="1.1" xmlns="http://www.w3.org/2000/svg" xmlns:xlink="http://www.w3.org/1999/xlink">
    <!-- Generator: Sketch 51.1 (57501) - http://www.bohemiancoding.com/sketch -->
    <title>pattern copy</title>
    <desc>Created with Sketch.</desc>
    <defs></defs>
    <g id="pattern-copy" stroke="none" stroke-width="1" fill="none" fill-rule="evenodd">
        <rect fill="#EEEEEE" x="0" y="0" width="480" height="350"></rect>
        <g id="Group-2" transform="translate(71.000000, 70.000000)">
            <polygon id="Path-2" stroke="#000000" fill="#FFFFFF" stroke-linecap="round" stroke-linejoin="round" points="340 0 0 0 0 222.727273 340 222.727273"></polygon>
            <g id="Group" transform="translate(351.000000, 89.090909)" fill="#000000" font-family="Lars-Mono, Lars" font-size="16" font-weight="normal">
                <text id="0.25&quot;">
                    <tspan x="0" y="16.5757576">0.25"</tspan>
                </text>
            </g>
            <g id="Group" transform="translate(9.000000, 0.000000)" stroke="#000000" stroke-dasharray="2,2" stroke-linecap="square">
                <path d="M321.208333,0.53030303 L321.208333,221.136364" id="Line"></path>
                <path d="M1.20138889,0.53030303 L1.20138889,222.19697" id="Line"></path>
            </g>
            <g id="Group-3" transform="translate(2.000000, 93.818182)">
                <path d="M0,13.7272727 C84.1625047,7.36363636 142.495838,4.18181818 175,4.18181818 C253.590128,4.18181818 279.010742,7.05193537 327,13.7272727 C328.802159,13.8510106 336.5,13.7272727 336.5,13.7272727" id="Line-4" stroke="#000000" stroke-width="4" stroke-linecap="square"></path>
                <path d="M0,16.8863988 C43.0260417,19.8863988 82.0260417,22.5530655 117,24.8863988 C187.855469,24.8863988 152.015625,0.112961314 328.252165,17.1817761 C333.520722,16.9937165 336.5,16.8863988 336.5,16.8863988" id="Line-4" stroke="#000000" stroke-width="4" stroke-linecap="square" transform="translate(168.250000, 18.034108) scale(1, -1) translate(-168.250000, -18.034108) "></path>
                <rect id="Rectangle" fill="#000000" x="84" y="0" width="20" height="19.0909091" rx="4"></rect>
            </g>
        </g>
        <path id="Line-5" d="M410.393491,138.784549 L407.610756,130.037756 L407.016409,130.675247 L415.936453,132.839227 L416.422359,132.957106 L416.658118,131.985295 L416.172212,131.867415 L407.252168,129.703436 L406.388335,129.493872 L406.65782,130.340927 L409.440555,139.08772 L409.59214,139.564188 L410.545076,139.261017 L410.393491,138.784549 Z M407.52475,131.236977 L408.987598,132.600823 L409.353309,132.941785 L410.035233,132.210361 L409.669521,131.869399 L408.206673,130.505553 L407.840962,130.164591 L407.159038,130.896015 L407.52475,131.236977 Z M410.450445,133.96467 L411.913292,135.328516 L412.279004,135.669478 L412.960927,134.938054 L412.595216,134.597093 L411.132368,133.233246 L410.766656,132.892284 L410.084733,133.623708 L410.450445,133.96467 Z M413.37614,136.692363 L414.838987,138.05621 L415.204699,138.397171 L415.886622,137.665747 L415.52091,137.324786 L414.058063,135.960939 L413.692351,135.619978 L413.010428,136.351401 L413.37614,136.692363 Z M416.301834,139.420056 L417.764682,140.783903 L418.130394,141.124864 L418.812317,140.393441 L418.446605,140.052479 L416.983758,138.688632 L416.618046,138.347671 L415.936123,139.079094 L416.301834,139.420056 Z M419.227529,142.147749 L420.690377,143.511596 L421.056088,143.852558 L421.738012,143.121134 L421.3723,142.780172 L419.909453,141.416326 L419.543741,141.075364 L418.861817,141.806788 L419.227529,142.147749 Z M422.153224,144.875443 L423.616071,146.239289 L423.981783,146.580251 L424.663707,145.848827 L424.297995,145.507865 L422.835147,144.144019 L422.469435,143.803057 L421.787512,144.534481 L422.153224,144.875443 Z M425.078919,147.603136 L426.541766,148.966982 L426.907478,149.307944 L427.589401,148.57652 L427.223689,148.235559 L425.760842,146.871712 L425.39513,146.53075 L424.713207,147.262174 L425.078919,147.603136 Z M428.004614,150.330829 L429.467461,151.694675 L429.833173,152.035637 L430.515096,151.304213 L430.149384,150.963252 L428.686537,149.599405 L428.320825,149.258444 L427.638902,149.989867 L428.004614,150.330829 Z M430.930308,153.058522 L432.393156,154.422369 L432.758868,154.76333 L433.440791,154.031907 L433.075079,153.690945 L431.612232,152.327098 L431.24652,151.986137 L430.564596,152.71756 L430.930308,153.058522 Z M433.856003,155.786215 L435.31885,157.150062 L435.684562,157.491024 L436.366486,156.7596 L436.000774,156.418638 L434.537926,155.054792 L434.172214,154.71383 L433.490291,155.445254 L433.856003,155.786215 Z M436.781698,158.513908 L437.159038,158.865712 L437.52475,159.206673 L438.206673,158.47525 L437.840962,158.134288 L437.463621,157.782485 L437.097909,157.441523 L436.415986,158.172947 L436.781698,158.513908 Z" fill="#000000" fill-rule="nonzero"></path>
        <rect id="Rectangle-2" stroke="#000000" opacity="0.300000012" x="71" y="170" width="37" height="20"></rect>
        <rect id="Rectangle-2" stroke="#000000" opacity="0.300000012" x="374" y="170" width="37" height="20"></rect>
    </g>
</svg>