<?xml version="1.0" encoding="UTF-8"?>
<svg width="480px" height="350px" viewBox="0 0 480 350" version="1.1" xmlns="http://www.w3.org/2000/svg" xmlns:xlink="http://www.w3.org/1999/xlink">
    <!-- Generator: Sketch 51.1 (57501) - http://www.bohemiancoding.com/sketch -->
    <title>pattern copy 3</title>
    <desc>Created with Sketch.</desc>
    <defs>
        <path d="M69,138 C107.107648,138 138,107.107648 138,69 C138,30.8923523 107.107648,0 69,0 C30.8923523,0 0,30.8923523 0,69 C0,107.107648 30.8923523,138 69,138 Z" id="path-1"></path>
        <path d="M69,138 C107.107648,138 138,107.107648 138,69 C138,30.8923523 107.107648,0 69,0 C30.8923523,0 0,30.8923523 0,69 C0,107.107648 30.8923523,138 69,138 Z" id="path-3"></path>
    </defs>
    <g id="pattern-copy-3" stroke="none" stroke-width="1" fill="none" fill-rule="evenodd">
        <rect fill="#EEEEEE" x="0" y="0" width="480" height="350"></rect>
        <g id="Group-4" transform="translate(87.000000, 106.000000)">
            <g id="Group-3">
                <path d="M69,138 C107.107648,138 138,107.107648 138,69 C138,30.8923523 107.107648,0 69,0 C30.8923523,0 0,30.8923523 0,69 C0,107.107648 30.8923523,138 69,138 Z" id="Oval" stroke-opacity="0.3" stroke="#000000" fill="#FFFFFF" stroke-dasharray="2,2"></path>
                <mask id="mask-2" fill="white">
                    <use xlink:href="#path-1"></use>
                </mask>
                <g id="Oval"></g>
                <g id="Group-2" mask="url(#mask-2)" stroke="#000000" stroke-linejoin="round">
                    <g transform="translate(-150.000000, -76.000000)" id="Path-4">
                        <polyline points="147.921875 170 259 170 189 120 222.943359 163.00293 202.140625 132.338867"></polyline>
                    </g>
                </g>
            </g>
            <g id="Group-3" transform="translate(168.000000, 0.000000)">
                <path d="M69,138 C107.107648,138 138,107.107648 138,69 C138,30.8923523 107.107648,0 69,0 C30.8923523,0 0,30.8923523 0,69 C0,107.107648 30.8923523,138 69,138 Z" id="Oval" stroke-opacity="0.3" stroke="#000000" fill="#FFFFFF" stroke-dasharray="2,2"></path>
                <mask id="mask-4" fill="white">
                    <use xlink:href="#path-3"></use>
                </mask>
                <g id="Oval"></g>
                <polyline id="Path-4" stroke="#000000" stroke-linejoin="round" mask="url(#mask-4)" points="-5 94 109 94 27.8481445 87.2734375 73.4287109 93.0473633 39.4580078 88.7314453"></polyline>
            </g>
            <text id="Fold-in" font-family="Lars-Mono, Lars" font-size="16" font-weight="normal" fill="#000000">
                <tspan x="35" y="174">Fold in</tspan>
            </text>
        </g>
        <rect id="Rectangle-4" fill="#FFFFFF" x="311" y="212" width="43" height="18"></rect>
        <text id="Leave-loop" font-family="Lars-Mono, Lars" font-size="16" font-weight="normal" fill="#000000">
            <tspan x="276" y="280">Leave loop</tspan>
        </text>
        <text id="0.5”" font-family="Lars-Mono, Lars" font-size="16" font-weight="normal" fill="#000000">
            <tspan x="333" y="175">0.5”</tspan>
        </text>
        <path id="Line" d="M327,185.201389 L327,193.201389 L327,193.701389 L328,193.701389 L328,193.201389 L328,185.201389 L328,184.701389 L327,184.701389 L327,185.201389 Z M365,193.201389 L365,185.201389 L365,184.701389 L364,184.701389 L364,185.201389 L364,193.201389 L364,193.701389 L365,193.701389 L365,193.201389 Z M327.5,189.701389 L329.5,189.701389 L330,189.701389 L330,188.701389 L329.5,188.701389 L327.5,188.701389 L327,188.701389 L327,189.701389 L327.5,189.701389 Z M331.5,189.701389 L333.5,189.701389 L334,189.701389 L334,188.701389 L333.5,188.701389 L331.5,188.701389 L331,188.701389 L331,189.701389 L331.5,189.701389 Z M335.5,189.701389 L337.5,189.701389 L338,189.701389 L338,188.701389 L337.5,188.701389 L335.5,188.701389 L335,188.701389 L335,189.701389 L335.5,189.701389 Z M339.5,189.701389 L341.5,189.701389 L342,189.701389 L342,188.701389 L341.5,188.701389 L339.5,188.701389 L339,188.701389 L339,189.701389 L339.5,189.701389 Z M343.5,189.701389 L345.5,189.701389 L346,189.701389 L346,188.701389 L345.5,188.701389 L343.5,188.701389 L343,188.701389 L343,189.701389 L343.5,189.701389 Z M347.5,189.701389 L349.5,189.701389 L350,189.701389 L350,188.701389 L349.5,188.701389 L347.5,188.701389 L347,188.701389 L347,189.701389 L347.5,189.701389 Z M351.5,189.701389 L353.5,189.701389 L354,189.701389 L354,188.701389 L353.5,188.701389 L351.5,188.701389 L351,188.701389 L351,189.701389 L351.5,189.701389 Z M355.5,189.701389 L357.5,189.701389 L358,189.701389 L358,188.701389 L357.5,188.701389 L355.5,188.701389 L355,188.701389 L355,189.701389 L355.5,189.701389 Z M359.5,189.701389 L361.5,189.701389 L362,189.701389 L362,188.701389 L361.5,188.701389 L359.5,188.701389 L359,188.701389 L359,189.701389 L359.5,189.701389 Z M363.5,189.701389 L364.5,189.701389 L365,189.701389 L365,188.701389 L364.5,188.701389 L363.5,188.701389 L363,188.701389 L363,189.701389 L363.5,189.701389 Z" fill="#000000" fill-rule="nonzero"></path>
    </g>
</svg>