<?xml version="1.0" encoding="UTF-8"?>
<svg width="480px" height="350px" viewBox="0 0 480 350" version="1.1" xmlns="http://www.w3.org/2000/svg" xmlns:xlink="http://www.w3.org/1999/xlink">
    <!-- Generator: Sketch 51.1 (57501) - http://www.bohemiancoding.com/sketch -->
    <title>pattern</title>
    <desc>Created with Sketch.</desc>
    <defs></defs>
    <g id="pattern" stroke="none" stroke-width="1" fill="none" fill-rule="evenodd">
        <rect fill="#EEEEEE" x="0" y="0" width="480" height="350"></rect>
        <g id="Group-2" transform="translate(30.000000, 11.000000)">
            <polygon id="Path-2" stroke="#000000" fill="#FFFFFF" stroke-linecap="round" stroke-linejoin="round" points="380 59 290 39 210 29 120 39 40 59 40 269 380 269"></polygon>
            <g id="Group" transform="translate(40.000000, 295.000000)" fill="#000000">
                <text id="17&quot;" font-family="Lars-Mono, Lars" font-size="16" font-weight="normal">
                    <tspan x="156" y="16">17"</tspan>
                </text>
                <path id="Line" d="M0,5.25 L0,13.25 L0,13.75 L1,13.75 L1,13.25 L1,5.25 L1,4.75 L0,4.75 L0,5.25 Z M0.5,9.75 L2.5,9.75 L3,9.75 L3,8.75 L2.5,8.75 L0.5,8.75 L0,8.75 L0,9.75 L0.5,9.75 Z M4.5,9.75 L6.5,9.75 L7,9.75 L7,8.75 L6.5,8.75 L4.5,8.75 L4,8.75 L4,9.75 L4.5,9.75 Z M8.5,9.75 L10.5,9.75 L11,9.75 L11,8.75 L10.5,8.75 L8.5,8.75 L8,8.75 L8,9.75 L8.5,9.75 Z M12.5,9.75 L14.5,9.75 L15,9.75 L15,8.75 L14.5,8.75 L12.5,8.75 L12,8.75 L12,9.75 L12.5,9.75 Z M16.5,9.75 L18.5,9.75 L19,9.75 L19,8.75 L18.5,8.75 L16.5,8.75 L16,8.75 L16,9.75 L16.5,9.75 Z M20.5,9.75 L22.5,9.75 L23,9.75 L23,8.75 L22.5,8.75 L20.5,8.75 L20,8.75 L20,9.75 L20.5,9.75 Z M24.5,9.75 L26.5,9.75 L27,9.75 L27,8.75 L26.5,8.75 L24.5,8.75 L24,8.75 L24,9.75 L24.5,9.75 Z M28.5,9.75 L30.5,9.75 L31,9.75 L31,8.75 L30.5,8.75 L28.5,8.75 L28,8.75 L28,9.75 L28.5,9.75 Z M32.5,9.75 L34.5,9.75 L35,9.75 L35,8.75 L34.5,8.75 L32.5,8.75 L32,8.75 L32,9.75 L32.5,9.75 Z M36.5,9.75 L38.5,9.75 L39,9.75 L39,8.75 L38.5,8.75 L36.5,8.75 L36,8.75 L36,9.75 L36.5,9.75 Z M40.5,9.75 L42.5,9.75 L43,9.75 L43,8.75 L42.5,8.75 L40.5,8.75 L40,8.75 L40,9.75 L40.5,9.75 Z M44.5,9.75 L46.5,9.75 L47,9.75 L47,8.75 L46.5,8.75 L44.5,8.75 L44,8.75 L44,9.75 L44.5,9.75 Z M48.5,9.75 L50.5,9.75 L51,9.75 L51,8.75 L50.5,8.75 L48.5,8.75 L48,8.75 L48,9.75 L48.5,9.75 Z M52.5,9.75 L54.5,9.75 L55,9.75 L55,8.75 L54.5,8.75 L52.5,8.75 L52,8.75 L52,9.75 L52.5,9.75 Z M56.5,9.75 L58.5,9.75 L59,9.75 L59,8.75 L58.5,8.75 L56.5,8.75 L56,8.75 L56,9.75 L56.5,9.75 Z M60.5,9.75 L62.5,9.75 L63,9.75 L63,8.75 L62.5,8.75 L60.5,8.75 L60,8.75 L60,9.75 L60.5,9.75 Z M64.5,9.75 L66.5,9.75 L67,9.75 L67,8.75 L66.5,8.75 L64.5,8.75 L64,8.75 L64,9.75 L64.5,9.75 Z M68.5,9.75 L70.5,9.75 L71,9.75 L71,8.75 L70.5,8.75 L68.5,8.75 L68,8.75 L68,9.75 L68.5,9.75 Z M72.5,9.75 L74.5,9.75 L75,9.75 L75,8.75 L74.5,8.75 L72.5,8.75 L72,8.75 L72,9.75 L72.5,9.75 Z M76.5,9.75 L78.5,9.75 L79,9.75 L79,8.75 L78.5,8.75 L76.5,8.75 L76,8.75 L76,9.75 L76.5,9.75 Z M80.5,9.75 L82.5,9.75 L83,9.75 L83,8.75 L82.5,8.75 L80.5,8.75 L80,8.75 L80,9.75 L80.5,9.75 Z M84.5,9.75 L86.5,9.75 L87,9.75 L87,8.75 L86.5,8.75 L84.5,8.75 L84,8.75 L84,9.75 L84.5,9.75 Z M88.5,9.75 L90.5,9.75 L91,9.75 L91,8.75 L90.5,8.75 L88.5,8.75 L88,8.75 L88,9.75 L88.5,9.75 Z M92.5,9.75 L94.5,9.75 L95,9.75 L95,8.75 L94.5,8.75 L92.5,8.75 L92,8.75 L92,9.75 L92.5,9.75 Z M96.5,9.75 L98.5,9.75 L99,9.75 L99,8.75 L98.5,8.75 L96.5,8.75 L96,8.75 L96,9.75 L96.5,9.75 Z M100.5,9.75 L102.5,9.75 L103,9.75 L103,8.75 L102.5,8.75 L100.5,8.75 L100,8.75 L100,9.75 L100.5,9.75 Z M104.5,9.75 L106.5,9.75 L107,9.75 L107,8.75 L106.5,8.75 L104.5,8.75 L104,8.75 L104,9.75 L104.5,9.75 Z M108.5,9.75 L110.5,9.75 L111,9.75 L111,8.75 L110.5,8.75 L108.5,8.75 L108,8.75 L108,9.75 L108.5,9.75 Z M112.5,9.75 L114.5,9.75 L115,9.75 L115,8.75 L114.5,8.75 L112.5,8.75 L112,8.75 L112,9.75 L112.5,9.75 Z M116.5,9.75 L118.5,9.75 L119,9.75 L119,8.75 L118.5,8.75 L116.5,8.75 L116,8.75 L116,9.75 L116.5,9.75 Z M120.5,9.75 L122.5,9.75 L123,9.75 L123,8.75 L122.5,8.75 L120.5,8.75 L120,8.75 L120,9.75 L120.5,9.75 Z M124.5,9.75 L126.5,9.75 L127,9.75 L127,8.75 L126.5,8.75 L124.5,8.75 L124,8.75 L124,9.75 L124.5,9.75 Z M128.5,9.75 L130.5,9.75 L131,9.75 L131,8.75 L130.5,8.75 L128.5,8.75 L128,8.75 L128,9.75 L128.5,9.75 Z M132.5,9.75 L134.5,9.75 L135,9.75 L135,8.75 L134.5,8.75 L132.5,8.75 L132,8.75 L132,9.75 L132.5,9.75 Z M136.5,9.75 L138.5,9.75 L139,9.75 L139,8.75 L138.5,8.75 L136.5,8.75 L136,8.75 L136,9.75 L136.5,9.75 Z" fill-rule="nonzero"></path>
                <path id="Line" d="M340,13.25 L340,5.25 L340,4.75 L339,4.75 L339,5.25 L339,13.25 L339,13.75 L340,13.75 L340,13.25 Z M199.5,9.75 L201.5,9.75 L202,9.75 L202,8.75 L201.5,8.75 L199.5,8.75 L199,8.75 L199,9.75 L199.5,9.75 Z M203.5,9.75 L205.5,9.75 L206,9.75 L206,8.75 L205.5,8.75 L203.5,8.75 L203,8.75 L203,9.75 L203.5,9.75 Z M207.5,9.75 L209.5,9.75 L210,9.75 L210,8.75 L209.5,8.75 L207.5,8.75 L207,8.75 L207,9.75 L207.5,9.75 Z M211.5,9.75 L213.5,9.75 L214,9.75 L214,8.75 L213.5,8.75 L211.5,8.75 L211,8.75 L211,9.75 L211.5,9.75 Z M215.5,9.75 L217.5,9.75 L218,9.75 L218,8.75 L217.5,8.75 L215.5,8.75 L215,8.75 L215,9.75 L215.5,9.75 Z M219.5,9.75 L221.5,9.75 L222,9.75 L222,8.75 L221.5,8.75 L219.5,8.75 L219,8.75 L219,9.75 L219.5,9.75 Z M223.5,9.75 L225.5,9.75 L226,9.75 L226,8.75 L225.5,8.75 L223.5,8.75 L223,8.75 L223,9.75 L223.5,9.75 Z M227.5,9.75 L229.5,9.75 L230,9.75 L230,8.75 L229.5,8.75 L227.5,8.75 L227,8.75 L227,9.75 L227.5,9.75 Z M231.5,9.75 L233.5,9.75 L234,9.75 L234,8.75 L233.5,8.75 L231.5,8.75 L231,8.75 L231,9.75 L231.5,9.75 Z M235.5,9.75 L237.5,9.75 L238,9.75 L238,8.75 L237.5,8.75 L235.5,8.75 L235,8.75 L235,9.75 L235.5,9.75 Z M239.5,9.75 L241.5,9.75 L242,9.75 L242,8.75 L241.5,8.75 L239.5,8.75 L239,8.75 L239,9.75 L239.5,9.75 Z M243.5,9.75 L245.5,9.75 L246,9.75 L246,8.75 L245.5,8.75 L243.5,8.75 L243,8.75 L243,9.75 L243.5,9.75 Z M247.5,9.75 L249.5,9.75 L250,9.75 L250,8.75 L249.5,8.75 L247.5,8.75 L247,8.75 L247,9.75 L247.5,9.75 Z M251.5,9.75 L253.5,9.75 L254,9.75 L254,8.75 L253.5,8.75 L251.5,8.75 L251,8.75 L251,9.75 L251.5,9.75 Z M255.5,9.75 L257.5,9.75 L258,9.75 L258,8.75 L257.5,8.75 L255.5,8.75 L255,8.75 L255,9.75 L255.5,9.75 Z M259.5,9.75 L261.5,9.75 L262,9.75 L262,8.75 L261.5,8.75 L259.5,8.75 L259,8.75 L259,9.75 L259.5,9.75 Z M263.5,9.75 L265.5,9.75 L266,9.75 L266,8.75 L265.5,8.75 L263.5,8.75 L263,8.75 L263,9.75 L263.5,9.75 Z M267.5,9.75 L269.5,9.75 L270,9.75 L270,8.75 L269.5,8.75 L267.5,8.75 L267,8.75 L267,9.75 L267.5,9.75 Z M271.5,9.75 L273.5,9.75 L274,9.75 L274,8.75 L273.5,8.75 L271.5,8.75 L271,8.75 L271,9.75 L271.5,9.75 Z M275.5,9.75 L277.5,9.75 L278,9.75 L278,8.75 L277.5,8.75 L275.5,8.75 L275,8.75 L275,9.75 L275.5,9.75 Z M279.5,9.75 L281.5,9.75 L282,9.75 L282,8.75 L281.5,8.75 L279.5,8.75 L279,8.75 L279,9.75 L279.5,9.75 Z M283.5,9.75 L285.5,9.75 L286,9.75 L286,8.75 L285.5,8.75 L283.5,8.75 L283,8.75 L283,9.75 L283.5,9.75 Z M287.5,9.75 L289.5,9.75 L290,9.75 L290,8.75 L289.5,8.75 L287.5,8.75 L287,8.75 L287,9.75 L287.5,9.75 Z M291.5,9.75 L293.5,9.75 L294,9.75 L294,8.75 L293.5,8.75 L291.5,8.75 L291,8.75 L291,9.75 L291.5,9.75 Z M295.5,9.75 L297.5,9.75 L298,9.75 L298,8.75 L297.5,8.75 L295.5,8.75 L295,8.75 L295,9.75 L295.5,9.75 Z M299.5,9.75 L301.5,9.75 L302,9.75 L302,8.75 L301.5,8.75 L299.5,8.75 L299,8.75 L299,9.75 L299.5,9.75 Z M303.5,9.75 L305.5,9.75 L306,9.75 L306,8.75 L305.5,8.75 L303.5,8.75 L303,8.75 L303,9.75 L303.5,9.75 Z M307.5,9.75 L309.5,9.75 L310,9.75 L310,8.75 L309.5,8.75 L307.5,8.75 L307,8.75 L307,9.75 L307.5,9.75 Z M311.5,9.75 L313.5,9.75 L314,9.75 L314,8.75 L313.5,8.75 L311.5,8.75 L311,8.75 L311,9.75 L311.5,9.75 Z M315.5,9.75 L317.5,9.75 L318,9.75 L318,8.75 L317.5,8.75 L315.5,8.75 L315,8.75 L315,9.75 L315.5,9.75 Z M319.5,9.75 L321.5,9.75 L322,9.75 L322,8.75 L321.5,8.75 L319.5,8.75 L319,8.75 L319,9.75 L319.5,9.75 Z M323.5,9.75 L325.5,9.75 L326,9.75 L326,8.75 L325.5,8.75 L323.5,8.75 L323,8.75 L323,9.75 L323.5,9.75 Z M327.5,9.75 L329.5,9.75 L330,9.75 L330,8.75 L329.5,8.75 L327.5,8.75 L327,8.75 L327,9.75 L327.5,9.75 Z M331.5,9.75 L333.5,9.75 L334,9.75 L334,8.75 L333.5,8.75 L331.5,8.75 L331,8.75 L331,9.75 L331.5,9.75 Z M335.5,9.75 L337.5,9.75 L338,9.75 L338,8.75 L337.5,8.75 L335.5,8.75 L335,8.75 L335,9.75 L335.5,9.75 Z" fill-rule="nonzero"></path>
            </g>
            <g id="Group" transform="translate(40.000000, 0.000000)">
                <text id="4.25”" font-family="Lars-Mono, Lars" font-size="16" font-weight="normal" fill="#000000">
                    <tspan x="102" y="16">4.25”</tspan>
                </text>
                <path id="Line" d="M0,5.25 L0,13.25 L0,13.75 L1,13.75 L1,13.25 L1,5.25 L1,4.75 L0,4.75 L0,5.25 Z M0.5,9.75 L2.5,9.75 L3,9.75 L3,8.75 L2.5,8.75 L0.5,8.75 L0,8.75 L0,9.75 L0.5,9.75 Z M4.5,9.75 L6.5,9.75 L7,9.75 L7,8.75 L6.5,8.75 L4.5,8.75 L4,8.75 L4,9.75 L4.5,9.75 Z M8.5,9.75 L10.5,9.75 L11,9.75 L11,8.75 L10.5,8.75 L8.5,8.75 L8,8.75 L8,9.75 L8.5,9.75 Z M12.5,9.75 L14.5,9.75 L15,9.75 L15,8.75 L14.5,8.75 L12.5,8.75 L12,8.75 L12,9.75 L12.5,9.75 Z M16.5,9.75 L18.5,9.75 L19,9.75 L19,8.75 L18.5,8.75 L16.5,8.75 L16,8.75 L16,9.75 L16.5,9.75 Z M20.5,9.75 L22.5,9.75 L23,9.75 L23,8.75 L22.5,8.75 L20.5,8.75 L20,8.75 L20,9.75 L20.5,9.75 Z M24.5,9.75 L26.5,9.75 L27,9.75 L27,8.75 L26.5,8.75 L24.5,8.75 L24,8.75 L24,9.75 L24.5,9.75 Z M28.5,9.75 L30.5,9.75 L31,9.75 L31,8.75 L30.5,8.75 L28.5,8.75 L28,8.75 L28,9.75 L28.5,9.75 Z M32.5,9.75 L34.5,9.75 L35,9.75 L35,8.75 L34.5,8.75 L32.5,8.75 L32,8.75 L32,9.75 L32.5,9.75 Z M36.5,9.75 L38.5,9.75 L39,9.75 L39,8.75 L38.5,8.75 L36.5,8.75 L36,8.75 L36,9.75 L36.5,9.75 Z M40.5,9.75 L42.5,9.75 L43,9.75 L43,8.75 L42.5,8.75 L40.5,8.75 L40,8.75 L40,9.75 L40.5,9.75 Z M44.5,9.75 L46.5,9.75 L47,9.75 L47,8.75 L46.5,8.75 L44.5,8.75 L44,8.75 L44,9.75 L44.5,9.75 Z M48.5,9.75 L50.5,9.75 L51,9.75 L51,8.75 L50.5,8.75 L48.5,8.75 L48,8.75 L48,9.75 L48.5,9.75 Z M52.5,9.75 L54.5,9.75 L55,9.75 L55,8.75 L54.5,8.75 L52.5,8.75 L52,8.75 L52,9.75 L52.5,9.75 Z M56.5,9.75 L58.5,9.75 L59,9.75 L59,8.75 L58.5,8.75 L56.5,8.75 L56,8.75 L56,9.75 L56.5,9.75 Z M60.5,9.75 L62.5,9.75 L63,9.75 L63,8.75 L62.5,8.75 L60.5,8.75 L60,8.75 L60,9.75 L60.5,9.75 Z M64.5,9.75 L66.5,9.75 L67,9.75 L67,8.75 L66.5,8.75 L64.5,8.75 L64,8.75 L64,9.75 L64.5,9.75 Z M68.5,9.75 L70.5,9.75 L71,9.75 L71,8.75 L70.5,8.75 L68.5,8.75 L68,8.75 L68,9.75 L68.5,9.75 Z M72.5,9.75 L74.5,9.75 L75,9.75 L75,8.75 L74.5,8.75 L72.5,8.75 L72,8.75 L72,9.75 L72.5,9.75 Z M76.5,9.75 L78.5,9.75 L79,9.75 L79,8.75 L78.5,8.75 L76.5,8.75 L76,8.75 L76,9.75 L76.5,9.75 Z M80.5,9.75 L82.5,9.75 L83,9.75 L83,8.75 L82.5,8.75 L80.5,8.75 L80,8.75 L80,9.75 L80.5,9.75 Z M84.5,9.75 L86.5,9.75 L87,9.75 L87,8.75 L86.5,8.75 L84.5,8.75 L84,8.75 L84,9.75 L84.5,9.75 Z M88.5,9.75 L90.5,9.75 L91,9.75 L91,8.75 L90.5,8.75 L88.5,8.75 L88,8.75 L88,9.75 L88.5,9.75 Z" fill="#000000" fill-rule="nonzero"></path>
                <path d="M80.25,5 L80.25,13" id="Line-2" stroke="#000000" stroke-linecap="square"></path>
                <path d="M170.25,5 L170.25,13" id="Line-2" stroke="#000000" stroke-linecap="square"></path>
                <path d="M250.25,5 L250.25,13" id="Line-2" stroke="#000000" stroke-linecap="square"></path>
                <path id="Line" d="M339,13.2083333 L339,5.20833333 L339,4.70833333 L338,4.70833333 L338,5.20833333 L338,13.2083333 L338,13.7083333 L339,13.7083333 L339,13.2083333 Z M155.5,9.70833333 L157.5,9.70833333 L158,9.70833333 L158,8.70833333 L157.5,8.70833333 L155.5,8.70833333 L155,8.70833333 L155,9.70833333 L155.5,9.70833333 Z M159.5,9.70833333 L161.5,9.70833333 L162,9.70833333 L162,8.70833333 L161.5,8.70833333 L159.5,8.70833333 L159,8.70833333 L159,9.70833333 L159.5,9.70833333 Z M163.5,9.70833333 L165.5,9.70833333 L166,9.70833333 L166,8.70833333 L165.5,8.70833333 L163.5,8.70833333 L163,8.70833333 L163,9.70833333 L163.5,9.70833333 Z M167.5,9.70833333 L169.5,9.70833333 L170,9.70833333 L170,8.70833333 L169.5,8.70833333 L167.5,8.70833333 L167,8.70833333 L167,9.70833333 L167.5,9.70833333 Z M171.5,9.70833333 L173.5,9.70833333 L174,9.70833333 L174,8.70833333 L173.5,8.70833333 L171.5,8.70833333 L171,8.70833333 L171,9.70833333 L171.5,9.70833333 Z M175.5,9.70833333 L177.5,9.70833333 L178,9.70833333 L178,8.70833333 L177.5,8.70833333 L175.5,8.70833333 L175,8.70833333 L175,9.70833333 L175.5,9.70833333 Z M179.5,9.70833333 L181.5,9.70833333 L182,9.70833333 L182,8.70833333 L181.5,8.70833333 L179.5,8.70833333 L179,8.70833333 L179,9.70833333 L179.5,9.70833333 Z M183.5,9.70833333 L185.5,9.70833333 L186,9.70833333 L186,8.70833333 L185.5,8.70833333 L183.5,8.70833333 L183,8.70833333 L183,9.70833333 L183.5,9.70833333 Z M187.5,9.70833333 L189.5,9.70833333 L190,9.70833333 L190,8.70833333 L189.5,8.70833333 L187.5,8.70833333 L187,8.70833333 L187,9.70833333 L187.5,9.70833333 Z M191.5,9.70833333 L193.5,9.70833333 L194,9.70833333 L194,8.70833333 L193.5,8.70833333 L191.5,8.70833333 L191,8.70833333 L191,9.70833333 L191.5,9.70833333 Z M195.5,9.70833333 L197.5,9.70833333 L198,9.70833333 L198,8.70833333 L197.5,8.70833333 L195.5,8.70833333 L195,8.70833333 L195,9.70833333 L195.5,9.70833333 Z M199.5,9.70833333 L201.5,9.70833333 L202,9.70833333 L202,8.70833333 L201.5,8.70833333 L199.5,8.70833333 L199,8.70833333 L199,9.70833333 L199.5,9.70833333 Z M203.5,9.70833333 L205.5,9.70833333 L206,9.70833333 L206,8.70833333 L205.5,8.70833333 L203.5,8.70833333 L203,8.70833333 L203,9.70833333 L203.5,9.70833333 Z M207.5,9.70833333 L209.5,9.70833333 L210,9.70833333 L210,8.70833333 L209.5,8.70833333 L207.5,8.70833333 L207,8.70833333 L207,9.70833333 L207.5,9.70833333 Z M211.5,9.70833333 L213.5,9.70833333 L214,9.70833333 L214,8.70833333 L213.5,8.70833333 L211.5,8.70833333 L211,8.70833333 L211,9.70833333 L211.5,9.70833333 Z M215.5,9.70833333 L217.5,9.70833333 L218,9.70833333 L218,8.70833333 L217.5,8.70833333 L215.5,8.70833333 L215,8.70833333 L215,9.70833333 L215.5,9.70833333 Z M219.5,9.70833333 L221.5,9.70833333 L222,9.70833333 L222,8.70833333 L221.5,8.70833333 L219.5,8.70833333 L219,8.70833333 L219,9.70833333 L219.5,9.70833333 Z M223.5,9.70833333 L225.5,9.70833333 L226,9.70833333 L226,8.70833333 L225.5,8.70833333 L223.5,8.70833333 L223,8.70833333 L223,9.70833333 L223.5,9.70833333 Z M227.5,9.70833333 L229.5,9.70833333 L230,9.70833333 L230,8.70833333 L229.5,8.70833333 L227.5,8.70833333 L227,8.70833333 L227,9.70833333 L227.5,9.70833333 Z M231.5,9.70833333 L233.5,9.70833333 L234,9.70833333 L234,8.70833333 L233.5,8.70833333 L231.5,8.70833333 L231,8.70833333 L231,9.70833333 L231.5,9.70833333 Z M235.5,9.70833333 L237.5,9.70833333 L238,9.70833333 L238,8.70833333 L237.5,8.70833333 L235.5,8.70833333 L235,8.70833333 L235,9.70833333 L235.5,9.70833333 Z M239.5,9.70833333 L241.5,9.70833333 L242,9.70833333 L242,8.70833333 L241.5,8.70833333 L239.5,8.70833333 L239,8.70833333 L239,9.70833333 L239.5,9.70833333 Z M243.5,9.70833333 L245.5,9.70833333 L246,9.70833333 L246,8.70833333 L245.5,8.70833333 L243.5,8.70833333 L243,8.70833333 L243,9.70833333 L243.5,9.70833333 Z M247.5,9.70833333 L249.5,9.70833333 L250,9.70833333 L250,8.70833333 L249.5,8.70833333 L247.5,8.70833333 L247,8.70833333 L247,9.70833333 L247.5,9.70833333 Z M251.5,9.70833333 L253.5,9.70833333 L254,9.70833333 L254,8.70833333 L253.5,8.70833333 L251.5,8.70833333 L251,8.70833333 L251,9.70833333 L251.5,9.70833333 Z M255.5,9.70833333 L257.5,9.70833333 L258,9.70833333 L258,8.70833333 L257.5,8.70833333 L255.5,8.70833333 L255,8.70833333 L255,9.70833333 L255.5,9.70833333 Z M259.5,9.70833333 L261.5,9.70833333 L262,9.70833333 L262,8.70833333 L261.5,8.70833333 L259.5,8.70833333 L259,8.70833333 L259,9.70833333 L259.5,9.70833333 Z M263.5,9.70833333 L265.5,9.70833333 L266,9.70833333 L266,8.70833333 L265.5,8.70833333 L263.5,8.70833333 L263,8.70833333 L263,9.70833333 L263.5,9.70833333 Z M267.5,9.70833333 L269.5,9.70833333 L270,9.70833333 L270,8.70833333 L269.5,8.70833333 L267.5,8.70833333 L267,8.70833333 L267,9.70833333 L267.5,9.70833333 Z M271.5,9.70833333 L273.5,9.70833333 L274,9.70833333 L274,8.70833333 L273.5,8.70833333 L271.5,8.70833333 L271,8.70833333 L271,9.70833333 L271.5,9.70833333 Z M275.5,9.70833333 L277.5,9.70833333 L278,9.70833333 L278,8.70833333 L277.5,8.70833333 L275.5,8.70833333 L275,8.70833333 L275,9.70833333 L275.5,9.70833333 Z M279.5,9.70833333 L281.5,9.70833333 L282,9.70833333 L282,8.70833333 L281.5,8.70833333 L279.5,8.70833333 L279,8.70833333 L279,9.70833333 L279.5,9.70833333 Z M283.5,9.70833333 L285.5,9.70833333 L286,9.70833333 L286,8.70833333 L285.5,8.70833333 L283.5,8.70833333 L283,8.70833333 L283,9.70833333 L283.5,9.70833333 Z M287.5,9.70833333 L289.5,9.70833333 L290,9.70833333 L290,8.70833333 L289.5,8.70833333 L287.5,8.70833333 L287,8.70833333 L287,9.70833333 L287.5,9.70833333 Z M291.5,9.70833333 L293.5,9.70833333 L294,9.70833333 L294,8.70833333 L293.5,8.70833333 L291.5,8.70833333 L291,8.70833333 L291,9.70833333 L291.5,9.70833333 Z M295.5,9.70833333 L297.5,9.70833333 L298,9.70833333 L298,8.70833333 L297.5,8.70833333 L295.5,8.70833333 L295,8.70833333 L295,9.70833333 L295.5,9.70833333 Z M299.5,9.70833333 L301.5,9.70833333 L302,9.70833333 L302,8.70833333 L301.5,8.70833333 L299.5,8.70833333 L299,8.70833333 L299,9.70833333 L299.5,9.70833333 Z M303.5,9.70833333 L305.5,9.70833333 L306,9.70833333 L306,8.70833333 L305.5,8.70833333 L303.5,8.70833333 L303,8.70833333 L303,9.70833333 L303.5,9.70833333 Z M307.5,9.70833333 L309.5,9.70833333 L310,9.70833333 L310,8.70833333 L309.5,8.70833333 L307.5,8.70833333 L307,8.70833333 L307,9.70833333 L307.5,9.70833333 Z M311.5,9.70833333 L313.5,9.70833333 L314,9.70833333 L314,8.70833333 L313.5,8.70833333 L311.5,8.70833333 L311,8.70833333 L311,9.70833333 L311.5,9.70833333 Z M315.5,9.70833333 L317.5,9.70833333 L318,9.70833333 L318,8.70833333 L317.5,8.70833333 L315.5,8.70833333 L315,8.70833333 L315,9.70833333 L315.5,9.70833333 Z M319.5,9.70833333 L321.5,9.70833333 L322,9.70833333 L322,8.70833333 L321.5,8.70833333 L319.5,8.70833333 L319,8.70833333 L319,9.70833333 L319.5,9.70833333 Z M323.5,9.70833333 L325.5,9.70833333 L326,9.70833333 L326,8.70833333 L325.5,8.70833333 L323.5,8.70833333 L323,8.70833333 L323,9.70833333 L323.5,9.70833333 Z M327.5,9.70833333 L329.5,9.70833333 L330,9.70833333 L330,8.70833333 L329.5,8.70833333 L327.5,8.70833333 L327,8.70833333 L327,9.70833333 L327.5,9.70833333 Z M331.5,9.70833333 L333.5,9.70833333 L334,9.70833333 L334,8.70833333 L333.5,8.70833333 L331.5,8.70833333 L331,8.70833333 L331,9.70833333 L331.5,9.70833333 Z M335.5,9.70833333 L337.5,9.70833333 L338,9.70833333 L338,8.70833333 L337.5,8.70833333 L335.5,8.70833333 L335,8.70833333 L335,9.70833333 L335.5,9.70833333 Z" fill="#000000" fill-rule="nonzero"></path>
            </g>
            <g id="Group" transform="translate(391.000000, 59.000000)" fill="#000000">
                <text id="10.5&quot;" font-family="Lars-Mono, Lars" font-size="16" font-weight="normal">
                    <tspan x="0" y="112">10.5"</tspan>
                </text>
                <path id="Line" d="M28.2083333,-1.11022302e-16 L20.2083333,3.33066907e-16 L19.7083333,3.60822483e-16 L19.7083333,1 L20.2083333,1 L28.2083333,1 L28.7083333,1 L28.7083333,-1.38777878e-16 L28.2083333,-1.11022302e-16 Z M23.7083333,0.5 L23.7083333,2.5 L23.7083333,3 L24.7083333,3 L24.7083333,2.5 L24.7083333,0.5 L24.7083333,1.11022302e-16 L23.7083333,1.11022302e-16 L23.7083333,0.5 Z M23.7083333,4.5 L23.7083333,6.5 L23.7083333,7 L24.7083333,7 L24.7083333,6.5 L24.7083333,4.5 L24.7083333,4 L23.7083333,4 L23.7083333,4.5 Z M23.7083333,8.5 L23.7083333,10.5 L23.7083333,11 L24.7083333,11 L24.7083333,10.5 L24.7083333,8.5 L24.7083333,8 L23.7083333,8 L23.7083333,8.5 Z M23.7083333,12.5 L23.7083333,14.5 L23.7083333,15 L24.7083333,15 L24.7083333,14.5 L24.7083333,12.5 L24.7083333,12 L23.7083333,12 L23.7083333,12.5 Z M23.7083333,16.5 L23.7083333,18.5 L23.7083333,19 L24.7083333,19 L24.7083333,18.5 L24.7083333,16.5 L24.7083333,16 L23.7083333,16 L23.7083333,16.5 Z M23.7083333,20.5 L23.7083333,22.5 L23.7083333,23 L24.7083333,23 L24.7083333,22.5 L24.7083333,20.5 L24.7083333,20 L23.7083333,20 L23.7083333,20.5 Z M23.7083333,24.5 L23.7083333,26.5 L23.7083333,27 L24.7083333,27 L24.7083333,26.5 L24.7083333,24.5 L24.7083333,24 L23.7083333,24 L23.7083333,24.5 Z M23.7083333,28.5 L23.7083333,30.5 L23.7083333,31 L24.7083333,31 L24.7083333,30.5 L24.7083333,28.5 L24.7083333,28 L23.7083333,28 L23.7083333,28.5 Z M23.7083333,32.5 L23.7083333,34.5 L23.7083333,35 L24.7083333,35 L24.7083333,34.5 L24.7083333,32.5 L24.7083333,32 L23.7083333,32 L23.7083333,32.5 Z M23.7083333,36.5 L23.7083333,38.5 L23.7083333,39 L24.7083333,39 L24.7083333,38.5 L24.7083333,36.5 L24.7083333,36 L23.7083333,36 L23.7083333,36.5 Z M23.7083333,40.5 L23.7083333,42.5 L23.7083333,43 L24.7083333,43 L24.7083333,42.5 L24.7083333,40.5 L24.7083333,40 L23.7083333,40 L23.7083333,40.5 Z M23.7083333,44.5 L23.7083333,46.5 L23.7083333,47 L24.7083333,47 L24.7083333,46.5 L24.7083333,44.5 L24.7083333,44 L23.7083333,44 L23.7083333,44.5 Z M23.7083333,48.5 L23.7083333,50.5 L23.7083333,51 L24.7083333,51 L24.7083333,50.5 L24.7083333,48.5 L24.7083333,48 L23.7083333,48 L23.7083333,48.5 Z M23.7083333,52.5 L23.7083333,54.5 L23.7083333,55 L24.7083333,55 L24.7083333,54.5 L24.7083333,52.5 L24.7083333,52 L23.7083333,52 L23.7083333,52.5 Z M23.7083333,56.5 L23.7083333,58.5 L23.7083333,59 L24.7083333,59 L24.7083333,58.5 L24.7083333,56.5 L24.7083333,56 L23.7083333,56 L23.7083333,56.5 Z M23.7083333,60.5 L23.7083333,62.5 L23.7083333,63 L24.7083333,63 L24.7083333,62.5 L24.7083333,60.5 L24.7083333,60 L23.7083333,60 L23.7083333,60.5 Z M23.7083333,64.5 L23.7083333,66.5 L23.7083333,67 L24.7083333,67 L24.7083333,66.5 L24.7083333,64.5 L24.7083333,64 L23.7083333,64 L23.7083333,64.5 Z M23.7083333,68.5 L23.7083333,70.5 L23.7083333,71 L24.7083333,71 L24.7083333,70.5 L24.7083333,68.5 L24.7083333,68 L23.7083333,68 L23.7083333,68.5 Z M23.7083333,72.5 L23.7083333,74.5 L23.7083333,75 L24.7083333,75 L24.7083333,74.5 L24.7083333,72.5 L24.7083333,72 L23.7083333,72 L23.7083333,72.5 Z M23.7083333,76.5 L23.7083333,78.5 L23.7083333,79 L24.7083333,79 L24.7083333,78.5 L24.7083333,76.5 L24.7083333,76 L23.7083333,76 L23.7083333,76.5 Z" fill-rule="nonzero"></path>
                <path id="Line" d="M20.2083333,210 L28.2083333,210 L28.7083333,210 L28.7083333,209 L28.2083333,209 L20.2083333,209 L19.7083333,209 L19.7083333,210 L20.2083333,210 Z M23.7083333,130.5 L23.7083333,132.5 L23.7083333,133 L24.7083333,133 L24.7083333,132.5 L24.7083333,130.5 L24.7083333,130 L23.7083333,130 L23.7083333,130.5 Z M23.7083333,134.5 L23.7083333,136.5 L23.7083333,137 L24.7083333,137 L24.7083333,136.5 L24.7083333,134.5 L24.7083333,134 L23.7083333,134 L23.7083333,134.5 Z M23.7083333,138.5 L23.7083333,140.5 L23.7083333,141 L24.7083333,141 L24.7083333,140.5 L24.7083333,138.5 L24.7083333,138 L23.7083333,138 L23.7083333,138.5 Z M23.7083333,142.5 L23.7083333,144.5 L23.7083333,145 L24.7083333,145 L24.7083333,144.5 L24.7083333,142.5 L24.7083333,142 L23.7083333,142 L23.7083333,142.5 Z M23.7083333,146.5 L23.7083333,148.5 L23.7083333,149 L24.7083333,149 L24.7083333,148.5 L24.7083333,146.5 L24.7083333,146 L23.7083333,146 L23.7083333,146.5 Z M23.7083333,150.5 L23.7083333,152.5 L23.7083333,153 L24.7083333,153 L24.7083333,152.5 L24.7083333,150.5 L24.7083333,150 L23.7083333,150 L23.7083333,150.5 Z M23.7083333,154.5 L23.7083333,156.5 L23.7083333,157 L24.7083333,157 L24.7083333,156.5 L24.7083333,154.5 L24.7083333,154 L23.7083333,154 L23.7083333,154.5 Z M23.7083333,158.5 L23.7083333,160.5 L23.7083333,161 L24.7083333,161 L24.7083333,160.5 L24.7083333,158.5 L24.7083333,158 L23.7083333,158 L23.7083333,158.5 Z M23.7083333,162.5 L23.7083333,164.5 L23.7083333,165 L24.7083333,165 L24.7083333,164.5 L24.7083333,162.5 L24.7083333,162 L23.7083333,162 L23.7083333,162.5 Z M23.7083333,166.5 L23.7083333,168.5 L23.7083333,169 L24.7083333,169 L24.7083333,168.5 L24.7083333,166.5 L24.7083333,166 L23.7083333,166 L23.7083333,166.5 Z M23.7083333,170.5 L23.7083333,172.5 L23.7083333,173 L24.7083333,173 L24.7083333,172.5 L24.7083333,170.5 L24.7083333,170 L23.7083333,170 L23.7083333,170.5 Z M23.7083333,174.5 L23.7083333,176.5 L23.7083333,177 L24.7083333,177 L24.7083333,176.5 L24.7083333,174.5 L24.7083333,174 L23.7083333,174 L23.7083333,174.5 Z M23.7083333,178.5 L23.7083333,180.5 L23.7083333,181 L24.7083333,181 L24.7083333,180.5 L24.7083333,178.5 L24.7083333,178 L23.7083333,178 L23.7083333,178.5 Z M23.7083333,182.5 L23.7083333,184.5 L23.7083333,185 L24.7083333,185 L24.7083333,184.5 L24.7083333,182.5 L24.7083333,182 L23.7083333,182 L23.7083333,182.5 Z M23.7083333,186.5 L23.7083333,188.5 L23.7083333,189 L24.7083333,189 L24.7083333,188.5 L24.7083333,186.5 L24.7083333,186 L23.7083333,186 L23.7083333,186.5 Z M23.7083333,190.5 L23.7083333,192.5 L23.7083333,193 L24.7083333,193 L24.7083333,192.5 L24.7083333,190.5 L24.7083333,190 L23.7083333,190 L23.7083333,190.5 Z M23.7083333,194.5 L23.7083333,196.5 L23.7083333,197 L24.7083333,197 L24.7083333,196.5 L24.7083333,194.5 L24.7083333,194 L23.7083333,194 L23.7083333,194.5 Z M23.7083333,198.5 L23.7083333,200.5 L23.7083333,201 L24.7083333,201 L24.7083333,200.5 L24.7083333,198.5 L24.7083333,198 L23.7083333,198 L23.7083333,198.5 Z M23.7083333,202.5 L23.7083333,204.5 L23.7083333,205 L24.7083333,205 L24.7083333,204.5 L24.7083333,202.5 L24.7083333,202 L23.7083333,202 L23.7083333,202.5 Z M23.7083333,206.5 L23.7083333,208.5 L23.7083333,209 L24.7083333,209 L24.7083333,208.5 L24.7083333,206.5 L24.7083333,206 L23.7083333,206 L23.7083333,206.5 Z" fill-rule="nonzero"></path>
            </g>
            <g id="Group" transform="translate(0.000000, 23.000000)">
                <text id="1&quot;" font-family="Lars-Mono, Lars" font-size="16" font-weight="normal" fill="#000000">
                    <tspan x="0.4" y="28">1"</tspan>
                </text>
                <text id="0.5&quot;" font-family="Lars-Mono, Lars" font-size="16" font-weight="normal" fill="#000000">
                    <tspan x="396.3" y="16">0.5"</tspan>
                </text>
                <path d="M80.5,21.5 L24.5,21.5" id="Line" stroke="#000000" stroke-linecap="square" stroke-dasharray="2,2"></path>
                <path id="Line-3" d="M84.5,16 L76.5,16 L76,16 L76,17 L76.5,17 L84.5,17 L85,17 L85,16 L84.5,16 Z M76.5,37 L84.5,37 L85,37 L85,36 L84.5,36 L76.5,36 L76,36 L76,37 L76.5,37 Z M80,16.5 L80,18.5 L80,19 L81,19 L81,18.5 L81,16.5 L81,16 L80,16 L80,16.5 Z M80,20.5 L80,22.5 L80,23 L81,23 L81,22.5 L81,20.5 L81,20 L80,20 L80,20.5 Z M80,24.5 L80,26.5 L80,27 L81,27 L81,26.5 L81,24.5 L81,24 L80,24 L80,24.5 Z M80,28.5 L80,30.5 L80,31 L81,31 L81,30.5 L81,28.5 L81,28 L80,28 L80,28.5 Z M80,32.5 L80,34.5 L80,35 L81,35 L81,34.5 L81,32.5 L81,32 L80,32 L80,32.5 Z" fill="#000000" fill-rule="nonzero"></path>
                <path id="Line-3" d="M254.25,6 L246.25,6 L245.75,6 L245.75,7 L246.25,7 L254.25,7 L254.75,7 L254.75,6 L254.25,6 Z M246.25,16 L254.25,16 L254.75,16 L254.75,15 L254.25,15 L246.25,15 L245.75,15 L245.75,16 L246.25,16 Z M249.75,6.5 L249.75,8.5 L249.75,9 L250.75,9 L250.75,8.5 L250.75,6.5 L250.75,6 L249.75,6 L249.75,6.5 Z M249.75,10.5 L249.75,12.5 L249.75,13 L250.75,13 L250.75,12.5 L250.75,10.5 L250.75,10 L249.75,10 L249.75,10.5 Z M249.75,14.5 L249.75,15.5 L249.75,16 L250.75,16 L250.75,15.5 L250.75,14.5 L250.75,14 L249.75,14 L249.75,14.5 Z" fill="#000000" fill-rule="nonzero"></path>
                <path d="M251.5,9.5 L381.5,9.5" id="Line" stroke="#000000" stroke-linecap="square" stroke-dasharray="2,2"></path>
            </g>
        </g>
    </g>
</svg>