<?xml version="1.0" encoding="UTF-8"?>
<svg width="30px" height="30px" viewBox="0 0 30 30" version="1.1" xmlns="http://www.w3.org/2000/svg" xmlns:xlink="http://www.w3.org/1999/xlink">
    <!-- Generator: Sketch 51.2 (57519) - http://www.bohemiancoding.com/sketch -->
    <title>Artboard</title>
    <desc>Created with Sketch.</desc>
    <defs></defs>
    <g id="Artboard" stroke="none" stroke-width="1" fill="none" fill-rule="evenodd">
        <g id="Group" transform="translate(5.000000, 7.000000)">
            <path d="M3.625,17.7855067 L8.39970934,14.375 L8.6,14.375 L17,14.375 C18.3116763,14.375 19.375,13.3116763 19.375,12 L19.375,3 C19.375,1.68832372 18.3116763,0.625 17,0.625 L3,0.625 C1.68832372,0.625 0.625,1.68832372 0.625,3 L0.625,12 C0.625,13.3116763 1.68832372,14.375 3,14.375 L3.625,14.375 L3.625,17.7855067 Z" id="Combined-Shape" stroke="#FFFFFF" stroke-width="1.25"></path>
            <path d="M4.5,5.25 L4,5.25 L4,4 L4.5,4 L15.5,4 L16,4 L16,5.25 L15.5,5.25 L4.5,5.25 Z M4.5,8.25 L4,8.25 L4,7 L4.5,7 L15.5,7 L16,7 L16,8.25 L15.5,8.25 L4.5,8.25 Z M4.29166667,11.25 L4,11.25 L4,10 L4.29166667,10 L10.7083333,10 L11,10 L11,11.25 L10.7083333,11.25 L4.29166667,11.25 Z" id="Combined-Shape" fill="#FFFFFF"></path>
        </g>
    </g>
</svg>